<svg id="Capa_1" enable-background="new 0 0 542.922 542.922" height="512" viewBox="0 0 542.922 542.922" width="512" xmlns="http://www.w3.org/2000/svg"><g><path d="m388.009 66.503c-88.818-88.732-232.752-88.662-321.484.157s-88.662 232.752.157 321.484c88.757 88.671 232.57 88.671 321.327 0 88.819-87.63 89.783-230.67 2.153-319.488-.713-.723-1.43-1.44-2.153-2.153zm-49.891 271.795c-61.315 61.221-160.65 61.144-221.87-.171s-61.144-160.65.171-221.87 160.65-61.144 221.87.171c29.378 29.423 45.875 69.305 45.866 110.884-.025 41.627-16.565 81.543-45.991 110.986z" fill="#ffbe00"/><path d="m542.9 491.624c.001 28.331-22.966 51.298-51.296 51.299-13.6 0-26.644-5.4-36.263-15.014l-94.567-94.476 5.601-3.878c24.857-16.825 46.283-38.229 63.135-63.067l3.855-5.601 94.476 94.454c9.659 9.6 15.081 22.663 15.059 36.283z" fill="#a8796f"/></g></svg>